<?xml version="1.0" standalone="no"?>
<!DOCTYPE svg PUBLIC "-//W3C//DTD SVG 20010904//EN"
 "http://www.w3.org/TR/2001/REC-SVG-20010904/DTD/svg10.dtd">
<svg version="1.0" xmlns="http://www.w3.org/2000/svg"
 width="231.000000pt" height="264.000000pt" viewBox="0 0 231.000000 264.000000"
 preserveAspectRatio="xMidYMid meet">

<g transform="translate(0.000000,264.000000) scale(0.100000,-0.100000)"
fill="#000000" stroke="none">
<path d="M1035 2474 c-86 -21 -117 -30 -165 -51 -103 -45 -146 -82 -422 -367
-246 -253 -280 -293 -313 -359 -46 -94 -58 -176 -38 -265 26 -111 119 -219
223 -258 25 -9 48 -20 53 -24 4 -3 0 -26 -9 -51 -24 -67 -22 -164 5 -224 59
-133 265 -245 471 -256 l45 -2 -50 -6 -50 -6 0 -50 c-1 -39 -4 -49 -15 -46
-90 23 -105 22 -115 -10 -5 -15 -16 -19 -46 -19 -22 0 -49 -5 -60 -10 -18 -10
-19 -7 -19 48 0 68 -7 77 -67 87 -34 5 -44 4 -49 -9 -3 -9 -14 -16 -24 -16
-10 0 -23 -7 -30 -15 -8 -10 -31 -15 -69 -15 -31 0 -62 -5 -69 -12 -14 -14
-16 -50 -3 -64 6 -5 11 -34 13 -64 l3 -55 68 -3 c63 -3 67 -4 67 -27 0 -14 8
-29 19 -35 25 -13 128 -13 136 0 4 7 12 7 25 0 24 -13 90 -13 110 0 12 8 16 2
20 -28 5 -36 6 -37 50 -37 42 0 45 2 51 30 6 29 7 29 8 4 2 -43 20 -50 127
-47 l99 3 0 35 0 35 135 5 c128 5 136 6 145 28 9 21 16 22 111 22 78 0 104 -3
114 -15 9 -11 33 -15 86 -15 66 0 74 -2 74 -19 0 -27 24 -43 62 -39 l33 3 3
147 3 147 -38 10 c-54 15 -71 14 -85 -9 -10 -16 -24 -20 -70 -20 -40 0 -62 -5
-74 -17 -16 -17 -17 -16 -10 19 11 58 -8 68 -118 68 -105 0 -123 -10 -111 -57
14 -57 17 -101 6 -107 -19 -12 -72 23 -71 47 1 12 2 27 1 34 -1 13 -54 33 -87
33 -26 0 -49 -33 -40 -57 4 -9 -1 -27 -9 -40 l-16 -24 -20 25 c-10 13 -19 31
-19 39 0 9 -6 18 -12 20 -10 4 -10 8 1 15 8 6 12 22 10 43 l-4 34 135 0 c160
1 281 10 369 31 35 8 66 13 68 10 2 -2 -12 -14 -31 -26 -59 -36 -46 -43 72
-38 84 2 116 8 147 24 l40 21 -6 -111 c-3 -61 -4 -113 -2 -116 6 -7 82 82 102
120 10 19 22 49 25 66 l7 31 40 -40 c22 -22 42 -37 45 -34 4 3 3 40 -1 82 -5
59 -12 82 -31 104 -30 35 -30 39 -1 43 21 4 21 5 -5 17 l-27 14 34 40 c34 39
45 67 26 67 -4 0 -20 -18 -35 -40 -27 -41 -47 -53 -40 -22 3 9 -2 26 -10 37
-15 20 -15 20 -16 -2 0 -13 -4 -23 -9 -23 -16 0 -20 42 -10 89 10 44 4 92 -26
188 -5 17 -3 23 7 23 32 0 138 63 176 104 23 24 53 68 69 98 26 48 28 62 28
158 0 167 -11 184 -337 518 -146 151 -289 291 -316 311 -103 78 -222 120 -352
126 -52 2 -104 2 -115 -1z m185 -14 c42 -7 100 -27 165 -59 114 -56 146 -85
485 -434 180 -185 205 -216 238 -285 34 -70 37 -85 37 -162 0 -71 -4 -94 -26
-141 -34 -72 -89 -133 -154 -170 -70 -40 -91 -36 -29 5 55 37 124 111 124 132
0 8 -16 24 -35 37 -62 43 -105 115 -105 180 0 34 -2 35 -112 87 -237 111 -362
140 -645 147 -112 3 -203 3 -203 0 0 -3 13 -27 29 -54 17 -26 31 -61 33 -78
l3 -30 -133 -17 c-73 -9 -170 -27 -215 -38 -134 -36 -123 -36 -130 -1 -4 17
-4 51 0 76 l6 44 -139 -65 c-121 -57 -145 -65 -184 -61 -25 3 -53 8 -62 12
-38 16 -37 -133 3 -224 15 -35 42 -70 82 -106 64 -58 65 -72 2 -30 -150 103
-195 290 -110 461 33 67 66 106 313 360 152 157 296 298 320 314 63 42 183 89
250 99 81 12 118 12 192 1z m179 -915 c58 -9 144 -27 191 -41 110 -33 153 -75
191 -184 15 -41 44 -115 65 -165 29 -69 39 -107 42 -162 2 -40 2 -73 -2 -73
-3 0 -31 16 -62 36 -30 20 -57 34 -60 32 -2 -2 6 -30 17 -62 12 -31 19 -59 17
-61 -2 -2 -22 2 -43 10 -51 18 -209 20 -181 2 10 -7 43 -33 74 -59 30 -26 63
-50 73 -53 30 -10 22 -18 -42 -49 -134 -63 -295 -88 -564 -88 -336 0 -526 45
-651 155 -120 106 -132 222 -41 418 19 41 42 100 51 131 20 70 54 112 117 144
55 27 178 59 284 73 118 15 407 12 524 -4z m-414 -975 c3 -6 -1 -13 -9 -16
-21 -8 -21 -60 -1 -68 8 -3 15 -10 15 -16 0 -6 -35 -10 -90 -10 -73 0 -90 3
-90 15 0 8 7 15 15 15 10 0 15 10 15 30 0 20 -5 30 -15 30 -16 0 -20 12 -8 23
10 11 161 8 168 -3z m-487 -132 c2 -123 2 -128 -18 -128 -19 0 -20 6 -20 112
0 92 -3 115 -17 131 -17 18 -16 18 17 15 l35 -3 3 -127z m972 113 c0 -6 -23
-11 -52 -13 -74 -4 -77 -28 -4 -28 43 0 56 -3 56 -15 0 -12 -13 -15 -55 -15
-73 0 -71 -18 2 -22 34 -2 58 -8 61 -15 2 -9 -7 -13 -27 -13 -21 0 -31 -5 -31
-15 0 -11 12 -15 46 -15 32 0 44 -4 42 -12 -3 -9 -38 -14 -116 -16 -93 -2
-112 0 -112 12 0 11 14 16 47 18 53 3 74 28 24 28 -31 0 -31 0 -31 53 0 29 -5
58 -12 65 -9 9 7 12 75 12 48 0 87 -4 87 -9z m-1052 -7 c21 -6 22 -11 22 -115
0 -102 -1 -109 -20 -109 -18 0 -20 7 -20 54 0 58 -16 86 -22 39 -3 -27 -6 -28
-60 -31 l-58 -3 0 54 c0 29 -5 58 -12 65 -17 17 8 24 73 20 51 -3 54 -5 57
-30 2 -16 8 -28 13 -28 12 0 12 57 -1 65 -12 7 -13 25 -2 25 4 0 17 -3 30 -6z
m1307 -14 l26 -10 -3 -117 c-2 -97 -6 -118 -18 -118 -12 0 -16 20 -18 110 -2
84 -6 112 -18 118 -8 4 -12 12 -9 18 8 11 8 11 40 -1z m-552 -30 c5 -4 4 -17
-2 -29 -10 -18 -7 -23 29 -41 39 -20 48 -39 23 -47 -6 -2 -25 8 -43 23 -26 23
-35 25 -49 16 -43 -32 -75 -51 -79 -47 -3 3 14 25 37 50 34 37 40 50 35 71 -6
24 -5 26 17 19 13 -4 28 -11 32 -15z m-439 -16 c13 -5 16 -25 16 -120 0 -107
-1 -114 -20 -114 -19 0 -20 7 -20 105 0 85 -3 107 -15 111 -8 4 -15 10 -15 15
0 10 31 12 54 3z m936 -33 c0 -40 0 -40 -42 -43 -30 -2 -43 -8 -43 -18 0 -11
14 -16 53 -18 61 -4 68 -17 15 -26 -91 -14 -108 -9 -104 36 1 9 -3 19 -9 23
-23 14 -7 24 43 27 38 2 52 7 52 18 0 11 -13 16 -47 18 -72 5 -58 22 17 22
l65 0 0 -39z m-1016 -22 c17 -13 26 -30 26 -49 0 -33 -40 -70 -75 -70 -34 0
-75 37 -75 68 0 34 37 72 70 72 15 0 39 -9 54 -21z m366 -9 c0 -6 -47 -10
-120 -10 -73 0 -120 4 -120 10 0 6 47 10 120 10 73 0 120 -4 120 -10z m-42
-82 l3 -38 -55 0 c-42 0 -56 -4 -56 -15 0 -10 15 -15 57 -17 34 -2 58 -8 61
-15 3 -10 -17 -13 -77 -13 l-81 0 0 30 c0 17 -4 30 -10 30 -5 0 -10 5 -10 10
0 6 28 10 65 10 51 0 65 3 65 15 0 12 -13 15 -60 15 -56 0 -70 6 -53 24 4 4
39 5 78 4 l70 -3 3 -37z m285 -3 c1 -6 -44 -11 -115 -13 -102 -2 -118 0 -118
13 0 13 16 15 115 13 66 -2 116 -7 118 -13z"/>
<path d="M724 1336 c-58 -49 -20 -146 57 -146 41 0 79 39 79 82 -1 76 -80 113
-136 64z"/>
<path d="M1416 1335 c-42 -39 -35 -105 15 -130 39 -21 64 -19 95 9 21 18 28
32 28 61 0 74 -84 110 -138 60z"/>
<path d="M967 1213 c-4 -3 -7 -19 -7 -34 0 -54 75 -77 135 -41 29 18 31 18 60
0 75 -45 167 6 126 71 -13 21 -41 5 -38 -21 4 -38 -43 -36 -87 2 l-36 32 -30
-32 c-38 -41 -83 -40 -88 3 -3 25 -20 35 -35 20z"/>
<path d="M880 520 c0 -23 4 -30 20 -30 16 0 20 7 20 30 0 23 -4 30 -20 30 -16
0 -20 -7 -20 -30z"/>
<path d="M300 450 c0 -33 3 -40 20 -40 17 0 20 7 20 40 0 33 -3 40 -20 40 -17
0 -20 -7 -20 -40z"/>
<path d="M580 405 c-26 -31 13 -82 44 -56 19 16 21 42 4 59 -16 16 -33 15 -48
-3z"/>
<path d="M1447 249 l-22 -19 29 -25 c33 -30 30 -37 -20 -41 -36 -3 -37 -3 -16
12 12 8 19 21 16 29 -9 22 -36 27 -55 9 -18 -16 -19 -16 -19 4 0 16 -6 22 -21
22 -16 0 -19 -4 -14 -22 6 -19 5 -21 -6 -10 -7 6 -28 12 -45 12 -32 0 -33 -1
-29 -37 4 -33 3 -34 -3 -8 -5 23 -14 31 -34 33 -21 3 -27 -2 -31 -20 -2 -13
-5 -6 -6 18 -1 28 -6 44 -17 48 -22 8 -34 -1 -34 -26 0 -20 -2 -19 -25 6 -37
40 -50 30 -46 -35 1 -29 5 -57 7 -61 11 -18 24 -6 24 23 0 27 2 30 15 19 12
-10 18 -10 30 0 13 11 15 8 15 -20 0 -23 4 -31 14 -27 7 3 17 2 22 -2 5 -5 30
-11 57 -15 39 -5 47 -3 47 11 0 9 3 13 7 10 3 -4 15 0 25 10 17 15 18 15 18 0
0 -10 7 -17 15 -17 8 0 15 7 15 16 0 14 1 14 16 0 16 -17 36 -21 48 -9 4 4 22
6 41 5 23 -2 36 2 43 13 8 16 10 16 15 1 7 -18 37 -22 37 -6 0 7 7 7 21 0 16
-9 24 -8 39 5 16 15 18 14 23 -6 7 -27 27 -15 27 16 0 13 5 27 11 31 17 10 30
-18 24 -53 -9 -52 13 -39 41 22 28 65 28 65 9 65 -8 0 -15 -8 -15 -17 -1 -16
-2 -16 -13 -3 -9 11 -32 15 -87 15 -52 0 -81 4 -93 14 -16 13 -19 13 -28 1 -5
-8 -7 -23 -5 -32 4 -16 3 -16 -20 0 -29 21 -31 36 -4 27 14 -4 20 -2 20 8 0
24 -38 27 -63 6z m113 -61 c0 -16 -3 -19 -11 -11 -6 6 -8 16 -5 22 11 17 16
13 16 -11z m50 -4 c0 -8 -4 -14 -10 -14 -5 0 -10 9 -10 21 0 11 5 17 10 14 6
-3 10 -13 10 -21z m-310 -3 c0 -6 -4 -13 -10 -16 -5 -3 -10 1 -10 9 0 9 5 16
10 16 6 0 10 -4 10 -9z"/>
</g>
</svg>
